<?xml version="1.0" standalone="no"?>
<!DOCTYPE svg PUBLIC "-//W3C//DTD SVG 20010904//EN"
 "http://www.w3.org/TR/2001/REC-SVG-20010904/DTD/svg10.dtd">
<svg version="1.0" xmlns="http://www.w3.org/2000/svg"
 width="800.000000pt" height="800.000000pt" viewBox="0 0 800.000000 800.000000"
 preserveAspectRatio="xMidYMid meet">
<metadata>
Created by potrace 1.14, written by Peter Selinger 2001-2017
</metadata>
<g transform="translate(0.000000,800.000000) scale(0.100000,-0.100000)"
fill="#000000" stroke="none">
<path d="M3940 7354 c-66 -38 -274 -167 -280 -174 -3 -3 -18 -14 -35 -24 -38
-24 -283 -208 -310 -233 -11 -10 -33 -29 -50 -41 -57 -45 -191 -168 -300 -277
-613 -613 -1071 -1397 -1285 -2199 -18 -65 -34 -130 -36 -145 -3 -14 -10 -46
-15 -71 -11 -47 -14 -62 -29 -150 -40 -233 -54 -524 -37 -740 28 -355 150
-732 338 -1045 160 -266 376 -509 606 -683 69 -52 73 -57 52 -63 -112 -31
-153 -46 -214 -76 -68 -34 -219 -133 -260 -170 -11 -10 -47 -40 -79 -68 -149
-125 -468 -469 -528 -570 -5 -8 236 -10 775 -9 701 1 790 3 862 18 120 26 250
72 370 130 l108 51 50 -53 c57 -60 158 -114 252 -135 160 -36 330 12 454 129
l64 60 81 -42 c114 -59 254 -109 376 -135 103 -22 121 -22 882 -23 l776 -2
-21 31 c-59 85 -218 265 -357 405 -260 261 -478 403 -698 457 l-34 8 42 30
c126 92 349 304 430 411 8 11 32 40 52 65 74 92 182 268 253 414 82 168 132
304 175 475 29 116 34 139 45 220 3 25 8 52 10 60 23 87 23 530 1 668 -3 15
-8 52 -11 82 -35 302 -172 792 -312 1110 -83 190 -215 452 -269 538 -19 29
-34 55 -34 57 0 14 -231 363 -277 420 -5 6 -22 28 -38 50 -174 234 -463 541
-700 745 -132 113 -487 370 -511 370 -4 0 -15 6 -23 14 -27 24 -234 136 -251
136 -8 -1 -35 -12 -60 -26z"/>
</g>
</svg>
